#!OML:ASF H:\ManfredETheater\Project 1\Capture day 1\Session 1\subject.ASF
:FULLY-SPECIFIED
:DEGREES
96
root 0.691904 15.6899 5.06827 -129.372 32.6786 -183.144
lowerback 42.6699 -3.21686 1.55526
upperback 13.7872 0.312636 3.47674
thorax -4.83103 1.08704 2.68516
lowerneck -5.02411 -1.14064 -0.128415
upperneck -25.2998 -0.876156 -3.33157
head -6.9272 0.764571 -1.1425
rclavicle 5.08889e-014 7.60351e-015
rhumerus 21.9263 30.6988 -54.2637
rradius 30.886
rwrist 13.1456
rhand -13.1352 -12.0922
rfingers 7.12502
rthumb 12.9629 -41.6696
lclavicle 5.08889e-014 7.60351e-015
lhumerus 27.8254 -19.0346 67.4542
lradius 18.4487
lwrist -3.04893
lhand 6.02277 12.6266
lfingers 7.12502
lthumb 31.345 39.9617
rfemur -102.458 -4.0299 24.008
rtibia 75.0872
rfoot -16.1663 -10.6012
rtoes -38.7654
lfemur -42.6446 3.67706 -29.2408
ltibia 51.5104
lfoot 26.0625 -21.2652
ltoes 10.2363
97
root 0.874095 15.7072 4.51193 -130.627 33.2651 -183.21
lowerback 42.7775 -3.06277 0.936644
upperback 13.7342 0.269377 3.61607
thorax -4.92298 1.04976 3.16579
lowerneck -4.73706 -0.970613 -0.0576777
upperneck -24.599 -0.744971 -3.59694
head -6.74078 0.772629 -1.23065
rclavicle 1.39348e-013 2.1516e-013
rhumerus 18.6086 31.9249 -56.4134
rradius 31.8437
rwrist 12.741
rhand -14.76 -12.1597
rfingers 7.12502
rthumb 11.3962 -41.83
lclavicle 1.39348e-013 2.1516e-013
lhumerus 23.8224 -18.7694 69.8996
lradius 19.1996
lwrist -6.33247
lhand 6.36677 10.7015
lfingers 7.12502
lthumb 31.6727 37.9725
rfemur -102.386 -4.11769 25.0618
rtibia 71.0123
rfoot -15.4737 -7.78189
rtoes -40.6449
lfemur -37.837 2.18425 -28.8283
ltibia 48.2897
lfoot 28.8997 -18.5611
ltoes 10.7386
98
root 1.05478 15.698 3.95988 -131.947 33.8103 -183.349
lowerback 42.8367 -2.91902 0.316852
upperback 13.6294 0.194091 3.72765
thorax -5.05467 0.997137 3.63051
lowerneck -4.50461 -0.81021 0.00890457
upperneck -23.8399 -0.610299 -3.81129
head -6.52745 0.778957 -1.30054
rclavicle 2.28602e-015 6.48535e-015
rhumerus 15.0192 33.2453 -58.6033
rradius 32.8388
rwrist 12.6057
rhand -16.3431 -12.0756
rfingers 7.12502
rthumb 9.86914 -41.8243
lclavicle 2.28602e-015 6.48535e-015
lhumerus 19.6325 -17.9718 72.4871
lradius 20.0236
lwrist -10.2202
lhand 5.58813 8.43043
lfingers 7.12502
lthumb 30.9308 35.8451
rfemur -102.079 -4.28332 26.1512
rtibia 67.1707
rfoot -14.3379 -4.66571
rtoes -41.9703
lfemur -33.3436 0.279494 -28.6351
ltibia 45.9132
lfoot 29.9885 -15.7114
ltoes 10.3763
99
root 1.23434 15.6646 3.41415 -133.264 34.2603 -183.502
lowerback 42.8154 -2.78361 -0.239145
upperback 13.4746 0.115156 3.82147
thorax -5.21684 0.943941 4.04572
lowerneck -4.32382 -0.668761 0.0961708
upperneck -23.0836 -0.483508 -3.97757
head -6.3084 0.781043 -1.35835
rclavicle -3.10104e-014 -5.87906e-014
rhumerus 11.1621 34.5619 -60.8842
rradius 33.8019
rwrist 12.7891
rhand -17.8791 -11.7752
rfingers 7.12502
rthumb 8.38698 -41.5887
lclavicle -3.10104e-014 -5.87906e-014
lhumerus 15.389 -16.8751 75.0114
lradius 20.9205
lwrist -13.6405
lhand 3.80509 6.37731
lfingers 7.12502
lthumb 29.2296 34.1014
rfemur -101.583 -4.49583 27.2738
rtibia 63.7432
rfoot -12.7798 -1.85291
rtoes -42.5451
lfemur -29.3238 -1.80758 -28.6863
ltibia 44.6175
lfoot 29.6318 -12.7591
ltoes 9.26541
100
root 1.41341 15.6116 2.87742 -134.493 34.5694 -183.606
lowerback 42.6783 -2.64852 -0.678389
upperback 13.2725 0.064139 3.912
thorax -5.4003 0.905169 4.38718
lowerneck -4.19097 -0.559315 0.218277
upperneck -22.3839 -0.382371 -4.09925
head -6.10188 0.773177 -1.40811
rclavicle -8.9304e-014 -7.53891e-014
rhumerus 6.99292 35.755 -63.3093
rradius 34.7402
rwrist 13.2891
rhand -19.339 -11.3455
rfingers 7.12502
rthumb 6.97795 -41.2105
lclavicle -8.9304e-014 -7.53891e-014
lhumerus 11.1762 -16.0332 77.2452
lradius 21.9924
lwrist -15.4194
lhand 1.21551 5.07206
lfingers 7.12502
lthumb 26.7541 33.2003
rfemur -100.967 -4.72178 28.4225
rtibia 60.9527
rfoot -11.0082 0.208673
rtoes -42.2806
lfemur -25.9189 -3.80583 -28.9301
ltibia 44.5428
lfoot 28.4971 -9.77175
ltoes 8.67858
101
root 1.5929 15.5474 2.34974 -135.583 34.7223 -183.581
lowerback 42.4369 -2.51177 -0.956861
upperback 13.0334 0.0655787 3.9994
thorax -5.59977 0.893465 4.62237
lowerneck -4.11084 -0.484064 0.37297
upperneck -21.7772 -0.309799 -4.17935
head -5.9185 0.756797 -1.45105
rclavicle 7.83212e-014 5.70015e-014
rhumerus 2.56528 36.736 -65.8831
rradius 35.6247
rwrist 13.9659
rhand -20.6453 -10.8469
rfingers 7.12502
rthumb 5.71681 -40.7498
lclavicle 7.83212e-014 5.70015e-014
lhumerus 7.03935 -15.6179 79.1934
lradius 23.2681
lwrist -15.1624
lhand -1.76295 4.61452
lfingers 7.12502
lthumb 23.9007 33.1472
rfemur -100.24 -4.92601 29.5087
rtibia 59.0341
rfoot -9.45489 1.20113
rtoes -41.2328
lfemur -23.1826 -5.42996 -29.2555
ltibia 45.6978
lfoot 27.1574 -6.88663
ltoes 8.45602
102
root 1.7727 15.4785 1.83211 -136.475 34.7277 -183.379
lowerback 42.0724 -2.36796 -1.06493
upperback 12.7676 0.13019 4.08281
thorax -5.79954 0.91281 4.74076
lowerneck -4.09859 -0.441588 0.552735
upperneck -21.287 -0.263732 -4.22068
head -5.76274 0.73506 -1.48731
rclavicle -3.45885e-014 4.66523e-015
rhumerus -2.05143 37.446 -68.5893
rradius 36.437
rwrist 14.6642
rhand -21.7766 -10.2961
rfingers 7.12502
rthumb 4.62453 -40.2256
lclavicle -3.45885e-014 4.66523e-015
lhumerus 3.01729 -15.7289 80.884
lradius 24.725
lwrist -12.9721
lhand -4.68962 4.78565
lfingers 7.12502
lthumb 21.0916 33.6585
rfemur -99.467 -5.07214 30.3904
rtibia 58.1548
rfoot -8.35093 0.949974
rtoes -39.8857
lfemur -21.1621 -6.5501 -29.5334
ltibia 47.9964
lfoot 25.8597 -4.5221
ltoes 8.56887
103
root 1.95143 15.4105 1.32487 -137.176 34.5657 -183.037
lowerback 41.5976 -2.24571 -0.972744
upperback 12.4774 0.238227 4.16546
thorax -5.99772 0.954095 4.73767
lowerneck -4.15783 -0.433299 0.737703
upperneck -20.9312 -0.249088 -4.24005
head -5.63934 0.708945 -1.51902
rclavicle 6.16232e-015 -4.20119e-014
rhumerus -6.7655 37.8421 -71.3675
rradius 37.1513
rwrist 15.2604
rhand -22.6881 -9.71335
rfingers 7.12502
rthumb 3.74434 -39.6602
lclavicle 6.16232e-015 -4.20119e-014
lhumerus -0.860919 -16.2903 82.405
lradius 26.2826
lwrist -9.40904
lhand -7.58782 5.28293
lfingers 7.12502
lthumb 18.3054 34.4416
rfemur -98.6862 -5.19826 30.9239
rtibia 58.3735
rfoot -7.75212 -0.459524
rtoes -38.3602
lfemur -19.865 -7.21619 -29.6672
ltibia 51.2898
lfoot 24.6721 -3.02969
ltoes 8.38717
104
root 2.1268 15.346 0.827133 -137.658 34.2262 -182.579
lowerback 40.9734 -2.17307 -0.6621
upperback 12.1695 0.36006 4.25028
thorax -6.16965 1.00199 4.61815
lowerneck -4.28518 -0.45073 0.910145
upperneck -20.7236 -0.257483 -4.25676
head -5.55268 0.68534 -1.54981
rclavicle 2.48481e-014 -1.09651e-013
rhumerus -11.451 37.9335 -74.1265
rradius 37.7559
rwrist 15.6701
rhand -23.3552 -9.10158
rfingers 7.12502
rthumb 3.10006 -39.0588
lclavicle 2.48481e-014 -1.09651e-013
lhumerus -4.5608 -17.0825 83.8085
lradius 27.8312
lwrist -5.39547
lhand -10.3707 5.77855
lfingers 7.12502
lthumb 15.6266 35.1674
rfemur -97.9577 -5.32278 31.1101
rtibia 59.5882
rfoot -7.5525 -2.69693
rtoes -36.6771
lfemur -19.3304 -7.53702 -29.5786
ltibia 55.4268
lfoot 23.5667 -2.57504
ltoes 7.92111
105
root 2.29698 15.2854 0.337313 -137.911 33.698 -182.033
lowerback 40.1897 -2.17544 -0.121637
upperback 11.8433 0.465338 4.3438
thorax -6.30533 1.04103 4.3948
lowerneck -4.46681 -0.48496 1.04708
upperneck -20.6708 -0.280118 -4.29025
head -5.50658 0.67124 -1.58234
rclavicle -8.74653e-015 4.89973e-014
rhumerus -15.996 37.7893 -76.7775
rradius 38.2787
rwrist 15.8485
rhand -23.6904 -8.59095
rfingers 7.12502
rthumb 2.77637 -38.5526
lclavicle -8.74653e-015 4.89973e-014
lhumerus -8.0591 -17.8361 85.1071
lradius 29.2739
lwrist -1.86108
lhand -12.7763 6.02368
lfingers 7.12502
lthumb 13.3088 35.5787
rfemur -97.2925 -5.47354 31.0366
rtibia 61.5688
rfoot -7.69145 -5.38582
rtoes -34.9095
lfemur -19.5666 -7.62408 -29.2353
ltibia 60.2481
lfoot 22.6203 -3.21883
ltoes 7.42184
106
root 2.46133 15.228 -0.145866 -137.957 32.9922 -181.445
lowerback 39.2717 -2.2515 0.606666
upperback 11.4952 0.53608 4.456
thorax -6.40981 1.06133 4.10643
lowerneck -4.69131 -0.52925 1.12666
upperneck -20.7695 -0.308599 -4.34565
head -5.50152 0.672148 -1.61483
rclavicle -3.37934e-014 6.77483e-014
rhumerus -20.2872 37.4526 -79.2422
rradius 38.67
rwrist 15.8972
rhand -23.7997 -8.11572
rfingers 7.12502
rthumb 2.67082 -38.0787
lclavicle -3.37934e-014 6.77483e-014
lhumerus -11.3339 -18.3011 86.288
lradius 30.5438
lwrist 0.469496
lhand -14.5094 6.00489
lfingers 7.12502
lthumb 11.6379 35.6617
rfemur -96.6639 -5.68498 30.8223
rtibia 64.0092
rfoot -8.15594 -8.13915
rtoes -33.1227
lfemur -20.5356 -7.54763 -28.6592
ltibia 65.5868
lfoot 21.7279 -4.70071
ltoes 6.96128
107
root 2.62136 15.1743 -0.62329 -137.823 32.1539 -180.838
lowerback 38.2658 -2.37556 1.43535
upperback 11.1218 0.567042 4.58661
thorax -6.49731 1.0589 3.79958
lowerneck -4.94077 -0.572406 1.15049
upperneck -21.0173 -0.327301 -4.42106
head -5.53937 0.695128 -1.64752
rclavicle -5.28767e-014 -5.60573e-014
rhumerus -24.241 36.9845 -81.4843
rradius 38.9096
rwrist 15.9394
rhand -23.6976 -7.72399
rfingers 7.12502
rthumb 2.76941 -37.6858
lclavicle -5.28767e-014 -5.60573e-014
lhumerus -14.3916 -18.3403 87.3002
lradius 31.6219
lwrist 1.30444
lhand -15.4603 5.77377
lfingers 7.12502
lthumb 10.7208 35.4802
rfemur -96.0123 -5.95674 30.5825
rtibia 66.5929
rfoot -8.93195 -10.7039
rtoes -31.4943
lfemur -22.164 -7.32467 -27.895
ltibia 71.2493
lfoot 20.8199 -6.64113
ltoes 6.70198
108
root 2.77999 15.1273 -1.09691 -137.553 31.2255 -180.236
lowerback 37.2273 -2.52164 2.28238
upperback 10.7219 0.560845 4.73441
thorax -6.58643 1.03428 3.51407
lowerneck -5.21275 -0.610191 1.12658
upperneck -21.381 -0.330811 -4.5138
head -5.61005 0.740299 -1.68066
rclavicle 1.51076e-014 1.05256e-013
rhumerus -27.8176 36.4053 -83.4792
rradius 38.9937
rwrist 16.1127
rhand -23.4596 -7.4124
rfingers 7.12502
rthumb 2.99924 -37.3711
lclavicle 1.51076e-014 1.05256e-013
lhumerus -17.2481 -17.8813 88.0897
lradius 32.5393
lwrist 0.672109
lhand -15.6388 5.43762
lfingers 7.12502
lthumb 10.5486 35.1529
rfemur -95.2703 -6.3027 30.4175
rtibia 69.0557
rfoot -10.0644 -12.8621
rtoes -30.2223
lfemur -24.3479 -6.96827 -26.9983
ltibia 77.0341
lfoot 19.8866 -8.68729
ltoes 6.76259
109
root 2.94112 15.0912 -1.56918 -137.191 30.2641 -179.65
lowerback 36.2047 -2.66215 3.06435
upperback 10.3027 0.524757 4.88564
thorax -6.68716 0.990916 3.27588
lowerneck -5.49521 -0.63813 1.05321
upperneck -21.8398 -0.309241 -4.595
head -5.70908 0.809592 -1.70491
rclavicle 2.90226e-014 -3.42904e-015
rhumerus -30.9431 35.6842 -85.2124
rradius 38.8682
rwrist 16.5201
rhand -23.1744 -7.11572
rfingers 7.12502
rthumb 3.27464 -37.0703
lclavicle 2.90226e-014 -3.42904e-015
lhumerus -19.9289 -16.9497 88.611
lradius 33.3574
lwrist -1.08327
lhand -15.1969 4.99172
lfingers 7.12502
lthumb 10.9749 34.6849
rfemur -94.3564 -6.7001 30.3495
rtibia 71.2052
rfoot -11.4969 -14.7223
rtoes -29.5875
lfemur -26.9668 -6.44004 -26.038
ltibia 82.7268
lfoot 18.7509 -10.4267
ltoes 6.2603
